<?xml version="1.0" encoding="utf-8"?>
<!-- Generator: Adobe Illustrator 27.9.0, SVG Export Plug-In . SVG Version: 6.00 Build 0)  -->
<svg version="1.1" id="Layer_1" xmlns="http://www.w3.org/2000/svg" xmlns:xlink="http://www.w3.org/1999/xlink" x="0px" y="0px"
	 viewBox="0 0 319.1 446.1" style="enable-background:new 0 0 319.1 446.1;" xml:space="preserve">
<style type="text/css">
	.st0{fill:#FFFFFF;stroke:url(#SVGID_1_);stroke-width:4;stroke-miterlimit:10;}
	.st1{fill:#E11F28;}
	.st2{font-family:'Montserrat-Bold';}
	.st3{font-size:8.3035px;}
	.st4{fill:#1C9DD8;}
	.st5{font-size:7.3964px;}
	.st6{font-size:7.929px;}
	.st7{fill:#131920;}
	.st8{fill:#1A1515;}
	.st9{fill:#C2C9D2;}
	.st10{fill:#9AA7B0;}
	.st11{fill:#FFFFFF;}
	.st12{fill:#231F20;}
	.st13{fill:#0E1216;}
	.st14{fill:#C0C9D3;}
	.st15{fill:#FFFFFF;stroke:#808080;stroke-linecap:round;stroke-linejoin:round;}
	.st16{fill:#15191D;}
	.st17{fill:none;}
	.st18{font-size:7.9299px;}
	.st19{fill:#E6E7E7;stroke:#231F20;stroke-miterlimit:10;}
	.st20{fill:#FFFFFF;stroke:#231F20;stroke-miterlimit:10;}
</style>
<linearGradient id="SVGID_1_" gradientUnits="userSpaceOnUse" x1="16.7839" y1="223.7589" x2="303.5379" y2="223.7589">
	<stop  offset="0" style="stop-color:#EB2127"/>
	<stop  offset="0.5171" style="stop-color:#7253A2"/>
	<stop  offset="1" style="stop-color:#29ABE2"/>
</linearGradient>
<polygon class="st0" points="123.8,16.3 174.1,29.4 165.4,115.6 229.9,219.2 301.3,245.9 293.2,288.1 233,364.4 223.1,430.8 
	143,404.8 88.4,418.4 32.6,375.6 69.2,298 18.9,206.8 40,126.2 "/>
<g>
	<text transform="matrix(1 0 0 1 32.0742 203.5174)" class="st1 st2 st3">10+ Accelerating Programmes</text>
</g>
<text transform="matrix(1 0 0 1 91.2402 69.8851)"><tspan x="0" y="0" class="st1 st2 st3">15+</tspan><tspan x="0" y="10" class="st1 st2 st3">Incubators </tspan><tspan x="0" y="19.9" class="st1 st2 st3">Accelerators </tspan><tspan x="0" y="29.9" class="st1 st2 st3">Innovation hubs</tspan></text>
<text transform="matrix(1 0 0 1 57.0874 367.8534)"><tspan x="0" y="0" class="st4 st2 st5">18 Petaflops Supercomputer: Meluxina  </tspan><tspan x="0" y="8.9" class="st4 st2 st5">is among the world’s top 50 computers </tspan><tspan x="0" y="17.8" class="st4 st2 st5">for high-performance calculation</tspan></text>
<text transform="matrix(1 0 0 1 77.4638 151.3934)"><tspan x="0" y="0" class="st4 st2 st6">4+ Support Programmes </tspan><tspan x="0" y="9.5" class="st4 st2 st6">to help startups become </tspan><tspan x="0" y="19" class="st4 st2 st6">more resilient and </tspan><tspan x="0" y="28.5" class="st4 st2 st6">competitive</tspan></text>
<text transform="matrix(1 0 0 1 92.3295 235.3172)"><tspan x="0" y="0" class="st4 st2 st6">High share of small companies, </tspan><tspan x="0" y="9.5" class="st4 st2 st6">a characteristic of the</tspan><tspan x="0" y="19" class="st4 st2 st6">EU cybersecurity ecosystem</tspan></text>
<g>
	<path class="st7" d="M135.8,50c-0.1-0.1-0.2-0.3-0.2-0.5c0,0,0,0,0-0.1c0,0,0-0.1-0.1-0.1c-0.1-0.1-0.2-0.2-0.3-0.2
		c-0.7-0.4-1.7-0.5-2.5-0.8c-0.5-0.1-0.8,0.2-1,0.6c-0.2,0.4-0.2,0.9,0.2,1.1c0.8,0.4,1.6,0.8,2.4,1c0.1,0,0.1,0,0.2,0
		c0.3,0.1,0.6,0.1,0.8,0c0,0,0,0,0,0c0,0,0,0,0,0c0.2-0.2,0.2-0.5,0.3-0.8C135.8,50.1,135.8,50,135.8,50z"/>
	<path class="st7" d="M160.5,52.2C160.5,52.2,160.5,52.2,160.5,52.2c-0.1-0.4-0.2-0.8-0.3-1.1c-0.1-0.1-0.1-0.3-0.2-0.4c0,0,0,0,0,0
		c-1.1-3.2-3.2-5.3-6-6.9c-3.7-1.7-7.5-1.7-11.2,0c-0.2,0.1-0.4,0.2-0.6,0.3c0,0-0.1,0.1-0.1,0.1c0,0-0.1,0-0.1,0
		c-1.9,1.2-3.5,2.7-4.6,4.8c-0.1,0.3-0.3,0.5-0.4,0.7c-0.2,0.3-0.3,0.5-0.4,0.8c-0.1,0.2-0.1,0.4-0.2,0.5c-0.4,2-0.7,4-0.3,6.1
		c0,0,0,0.1,0,0.1c0,0.1,0.1,0.3,0.1,0.4c0,0,0,0,0,0c0.1,0.3,0.1,0.6,0.2,0.9c0.1,0.3,0.1,0.6,0.2,0.9c0,0,0,0,0,0
		c1,2.3,2.6,4.2,4.6,5.7c1.4,1,1.4,1.6,0.4,3c-0.2,0.3-0.4,0.6-0.5,0.9c0,0.2,0,0.4-0.1,0.5c0,0,0,0,0,0.1c0,0,0,0,0,0.1
		c0.4,0.6,0.5,1.5,0.3,2.1c-0.1,0.4-0.2,0.8-0.4,1.1c-0.3,2.8,0.8,3.8,3.8,3.8c2.3,0,4.7-0.1,7,0c2.7,0.2,4.2-1.2,3.8-4
		c-0.1-0.2-0.2-0.4-0.3-0.6c-0.2-0.6-0.2-1.2,0-1.8c0.1-0.2,0.2-0.4,0.3-0.6c0-0.1,0-0.2,0-0.3c0-0.6-0.3-1.1-0.8-1.6
		c-0.9-1-0.9-1.7,0.2-2.6c2.2-1.6,3.9-3.6,4.9-6.1c0.1-0.2,0.1-0.3,0.2-0.4c0,0,0-0.1,0-0.1c0-0.1,0-0.1,0.1-0.2
		c0-0.3,0.1-0.6,0.2-0.8c0,0,0-0.1,0.1-0.1c0,0,0,0,0,0c0,0,0,0-0.1,0C161,55.8,160.8,54,160.5,52.2z M152.8,74.9
		c-2.7,0-5.3,0-8-0.1c-0.2,0-0.3,0.1-0.5,0.1c-0.7,0.1-1.4-0.1-1.4-1c0-0.8,0.7-1.1,1.4-1c0.2,0,0.3,0,0.5,0.1
		c0.6-0.2,1.4,0.1,2-0.3c0.4-0.5,0.3-1,0.2-1.5c-0.8-0.3-1.6-0.1-2.4-0.3c-0.6,0.1-1.3,0.2-1.6-0.5c-0.2-0.5,0-0.8,0.3-1.1
		c0.4-0.3,0.9-0.2,1.3-0.2c2.7,0,5.4,0,8.1-0.1c0.7,0,1.2,0.3,1.2,1c0,0.8-0.6,0.9-1.3,0.9c-0.7,0-1.4,0-2,0c-0.7,0-1.4,0.1-1.4,0.9
		c0,0.8,0.6,1,1.3,1c0.8,0,1.5,0,2.3,0c0.6,0,1.1,0.3,1.1,1C153.9,74.6,153.4,74.9,152.8,74.9z M154.2,63.8
		c-1.2,0.9-1.7,2.1-2.1,3.4c-2.3,0.3-4.6,0.1-6.9,0.1c-0.5,0-0.7-0.2-0.8-0.6c-0.2-1.5-1.2-2.3-2.3-3.2c-3.5-2.7-4.8-6.3-4-10.5
		c0.8-4.3,3.5-7.1,7.8-8.2c0.8-0.2,1.7-0.3,2.5-0.2c5.2-0.3,10,4.1,10.5,9.3C159.1,58.1,157.7,61.4,154.2,63.8z"/>
	<path class="st7" d="M164.6,58.2c-0.9-0.2-1.7-0.6-2.6-0.7c0,0-0.1,0-0.1,0.1c-0.1,0-0.1,0-0.2,0.1c0,0,0,0-0.1,0c0,0-0.1,0.1,0,0
		c0.1,0,0,0,0,0c0,0,0,0-0.1,0.1c0,0-0.1,0.1-0.1,0.1c0,0-0.1,0.1-0.1,0.1c0,0.1-0.1,0.2-0.1,0.3c0,0.1-0.1,0.3-0.1,0.4
		c0,0,0.1,0.1,0.1,0.2c0,0.1,0,0.2,0,0.2c0,0,0,0.1,0,0.1c0,0,0,0.1,0,0c0,0,0.1,0.1,0.1,0.1c0.1,0,0.1,0.1,0.1,0.2
		c0.8,0.4,1.8,0.5,2.7,0.6c0.5,0,1.1,0.2,1.2-0.6C165.5,58.9,165.2,58.4,164.6,58.2z"/>
	<path class="st7" d="M165,49c-0.1-0.4-0.3-0.6-0.7-0.7c-0.8-0.2-2.3,0.5-3.4,1.3c0,0.2,0,0.4,0,0.6c0,0.2,0,0.3,0.1,0.4
		c0.1,0.1,0.2,0.2,0.3,0.2c0.2,0.1,0.4,0.1,0.7,0.2c1-0.2,1.8-0.7,2.7-1.1C165,49.8,165,49.4,165,49z"/>
	<path class="st7" d="M135.4,58.3C135.3,58.2,135.3,58.2,135.4,58.3c-0.1-0.1-0.1-0.1-0.1-0.1c0,0,0,0,0,0c-0.1-0.1-0.2-0.2-0.3-0.4
		c0,0,0,0,0,0c0,0,0,0,0,0c0,0-0.1-0.1-0.1-0.1c-1.1,0.1-2.1,0.6-3.1,0.9c-0.5,0.2-0.3,0.7-0.3,1.1c0,0.5,0.4,0.5,0.8,0.5
		c1.1,0,2.1-0.2,3.1-0.6c0,0,0.1-0.1,0.1-0.1c0.1-0.1,0.1-0.3,0.1-0.5c0,0,0-0.1,0-0.1c0-0.1,0-0.2-0.1-0.3
		C135.4,58.4,135.4,58.3,135.4,58.3z"/>
	<path class="st7" d="M158.5,40.5c-0.5-0.4-1.1-0.2-1.4,0.3c-0.6,0.9-1.3,1.6-1.7,2.6c0.1,1.3,0.5,1.5,1.8,0.8
		c0-0.1,0.1-0.2,0.2-0.3c0,0,0,0,0,0c0,0,0-0.1,0-0.1c0.4-0.6,0.8-1.3,1.2-1.9C158.9,41.4,159.1,40.9,158.5,40.5z"/>
	<path class="st7" d="M147.4,39.6c0-0.5,0-1,0-1.5c0.1-0.5,0.5-0.8,0.9-0.8c0.5,0,0.9,0.3,1,0.8c0,1,0.1,2,0,3c0,0.6-0.3,1.1-1,1
		c-0.7,0-0.8-0.6-0.9-1.2C147.3,40.5,147.3,40,147.4,39.6C147.4,39.6,147.4,39.6,147.4,39.6z"/>
	<path class="st7" d="M141.4,43.8C141.4,43.9,141.4,43.8,141.4,43.8c0-0.1,0-0.2,0-0.2c0,0,0,0,0,0c-0.4-1-1.1-1.7-1.6-2.6
		c-0.3-0.5-0.8-0.9-1.5-0.5c-0.7,0.5-0.4,1.1-0.1,1.6c0.4,0.6,0.9,1,1.1,1.7c1.1,1.1,1.4,1.1,2.1,0.2
		C141.4,43.9,141.4,43.9,141.4,43.8z"/>
	<path class="st7" d="M145.5,64.6c-0.9,0.1-1.2-0.6-1.5-1.3c0-0.2,0.1-0.4-0.2-0.5c0,0,0,0,0,0c-0.5-2.5-1.5-4.8-2.2-7.2
		c-0.1-0.3-0.2-0.6-0.3-1c-0.3-1.3,0.2-1.9,1.5-1.5c0.9,0.2,1.7,0.4,2.4-0.4c0.6-0.6,1.4-0.7,2.1,0c0.7,0.6,1.3,0.6,2,0
		c0.7-0.6,1.4-0.7,2,0c0.8,0.8,1.6,0.7,2.5,0.4c1.3-0.4,1.9,0.2,1.5,1.5c-0.9,2.9-1.8,5.9-2.8,8.8c-0.2,0.6-0.4,1.4-1.4,1.1
		c-0.9-0.3-0.8-1.1-0.6-1.7c0.7-2.3,1.4-4.5,2.2-6.7c0.1-0.2,0.1-0.3,0.1-0.5c-0.2,0-0.3,0-0.4-0.1c-1.4-0.6-2.7-1.2-4.1,0
		c-0.2,0.2-0.6,0-0.8-0.2c-0.9-0.9-1.7-0.8-2.6,0c-0.3,0.3-0.8,0.1-1.3,0.3c0.8,2.4,1.6,4.8,2.4,7.2
		C146.3,63.6,146.3,64.2,145.5,64.6z"/>
</g>
<g>
	<g>
		<path class="st8" d="M53.5,131.6c0-1.5,0-3,0-4.6c0-3.1,0-6.2,0-9.3c0-1.2,0.2-1.4,1.3-1.3c1.6,0.1,3.2,0,4.8,0.1
			c1,0.1,1.7,0.6,2,1.6c0.1,0.5,0.4,0.6,0.9,0.7c1.2,0.1,1.8-0.2,2.3-1.4c0.8-1.9,2.5-2.7,4.5-2.6c1.1,0,2.3,0.1,3.4,0.1
			c1.4,0,2.7,0.3,4,0.9c0.3,0.2,0.6,0.2,1,0.1c2.8-0.7,5.6-0.5,8.2,0.8c1.4,0.7,2.4,1.8,3,3.3c0.4,1.2,0.9,1.5,2.2,1.5
			c0.4,0,0.8,0,1.2,0c0.6,0,1.1,0,1.4-0.6c0.3-0.4,0.9-0.6,1.4-0.6c1.6,0,3.3,0,4.9,0c1,0,1.1,0.1,1.1,1.1c0,1.7-0.1,3.3,0,5
			c0,1.5,0,3-0.1,4.5c0,2.4-0.1,4.7-0.1,7.1c0,0.8-0.2,1-1,1c-1.6,0-3.3-0.1-4.9-0.1c-0.8,0-1.4-0.3-1.8-0.9
			c-0.3-0.4-0.6-0.5-1.1-0.5c-1,0-1.9,0.1-2.8,0.6c-0.9,0.5-2,0.4-3,0.6c-0.3,0.1-0.5,0.1-0.7,0.5c-0.6,1.3-1.9,1.9-3.3,1.4
			c-0.4-0.2-0.6-0.1-0.7,0.3c-0.5,1.1-1.4,1.7-2.6,1.7c-0.4,0-0.6,0.1-0.9,0.3c-1.7,1.2-3.8,0.6-4.5-1.4c-0.1-0.3-0.2-0.4-0.5-0.3
			c-1.5,0.2-2.7-0.2-3.3-1.7c-0.1-0.3-0.3-0.3-0.6-0.3c-2.1,0.4-3.3-0.4-3.7-2.5c-0.1-0.3-0.2-0.4-0.5-0.4c-1.9-0.2-2.9-1.3-2.9-3.2
			c0-0.2,0.3-0.6-0.2-0.7c-0.5-0.1-0.4,0.3-0.5,0.6c-0.3,0.9-1.2,1.5-2.4,1.6c-1,0-2-0.2-3,0c-0.6-0.3-1.2-0.1-1.8-0.1
			c-0.6,0-0.9-0.3-0.9-0.9C53.6,132.8,53.5,132.2,53.5,131.6z M96.1,121.7c-1.1-0.1-1.8,0.1-1.7,1.4c0.1,1.1,0,2.1,0,3.2
			c0,3.4-0.1,6.7-0.1,10.1c0,0.7,0.4,1.1,1.1,1.1c0.3,0,0.5,0,0.8,0c0.9,0,1.9,0,2.8,0c0.6,0,0.8-0.2,0.8-0.8c0-2.5,0-4.9,0.1-7.4
			c0.1-2.5,0-5.1,0-7.6C98.6,121.5,97.4,121.6,96.1,121.7z M56.4,117.8c-0.1,0-0.2,0-0.4,0c-1.1,0-1.1,0-1.1,1
			c0,4.2-0.1,8.5-0.1,12.7c0,1.4,0,1.4,1.4,1.3c1,0,2,0,3,0c0.8,0,1.2-0.5,1.1-1.3c0-0.4-0.1-0.8,0-1.2c0.1-3.8,0.1-7.6,0.1-11.4
			c0-0.8-0.4-1.2-1.1-1.2C58.4,117.8,57.4,117.8,56.4,117.8z M71.8,125.6c1.3,0.2,2.4-0.4,3.2-1.3c1-1.1,2-2.1,3-3.2
			c0.7-0.8,1.1-0.7,1.6,0.3c0.8,1.6,2.2,2.3,3.8,2c0.7-0.1,1.2-0.5,1.7-0.9c0.3-0.2,0.7-0.3,1,0.1c0.3,0.4,0.2,0.7-0.1,1
			c-0.2,0.2-0.4,0.3-0.6,0.4c2,2.1,3.6,4.5,5.5,6.7c1.5,1.7,0.5,4.3-1.7,4.5c-0.2,0-0.4,0-0.4,0.2c0,0.4-0.3,0.8-0.4,1.3
			c0.2,0,0.4,0,0.5-0.1c1-0.9,2.2-0.7,3.3-0.7c0.6,0,0.7-0.2,0.7-0.7c0-3.6,0-7.1,0-10.7c0-0.6,0.3-1.3-0.1-1.7
			c-0.4-0.4-1.1-0.1-1.7-0.1c-1.7,0-2.8-0.8-3.4-2.4c-0.4-1-1-1.8-1.9-2.4c-2.1-1.2-4.4-1.6-6.8-1.2c-1.3,0.1-2.4,0.7-3.4,1.6
			c-0.7,0.6-1.3,1.3-1.9,1.9c-1.2,1.2-2.4,2.5-3.6,3.7c-0.5,0.5-0.5,0.7,0.2,1C70.8,125.5,71.2,125.7,71.8,125.6z M69.2,116.1
			c-1.4,0-2.7,0.8-3.1,2.1c-0.2,0.6-0.5,1.2-1,1.6c-0.6,0.3-1.2,0.3-1.8,0.3c-0.1,0-0.2,0-0.4,0c-0.6-0.1-1,0-1,0.8
			c0,2.8-0.1,5.7-0.1,8.5c0,1.3,0,1.3,1.3,1.2c0.3,0.1,0.3-0.1,0.4-0.3c0.4-0.5,0.7-1,1.1-1.4c1-1.1,2.5-1.3,3.7-0.6
			c0.6,0.3,0.9,0.8,1.2,1.4c0,0,0.1,0,0.1,0c1.5-1.8,4.8-1.2,5.1,1.3c0.1,0.4,0.3,0.2,0.5,0.2c2.1-0.3,3.7,1.2,3.4,3.3
			c-0.1,0.4,0,0.4,0.3,0.4c1,0.2,1.8,0.8,2.2,1.8c0.3,0.9,1,1.5,1.6,2.2c0.6,0.6,1.6,0.4,1.9-0.5c0.2-0.6,0-1-0.4-1.4
			c-1.7-1.8-3.4-3.6-5.1-5.5c-0.5-0.5-1-1.1-1.5-1.7c-0.3-0.3-0.2-0.7,0.1-1c0.3-0.3,0.7-0.2,1,0c0.1,0.1,0.2,0.2,0.3,0.3
			c2.1,2.3,4.2,4.5,6.3,6.8c0.2,0.2,0.4,0.5,0.8,0.5c0.5,0.1,1-0.1,1.2-0.6c0.3-0.6,0.1-1.1-0.3-1.5c-2.3-2.5-4.5-5.1-6.8-7.6
			c-0.4-0.4-0.6-0.9-0.1-1.3c0.4-0.4,0.8,0,1.2,0.4c0.1,0.1,0.2,0.2,0.3,0.3c2.2,2.4,4.4,4.9,6.6,7.3c0.5,0.5,1.2,0.6,1.7,0.2
			c0.5-0.4,0.6-1.2,0.2-1.8c-0.2-0.4-0.5-0.7-0.8-1c-1.6-1.9-3.1-4-4.8-5.9c-0.2-0.2-0.3-0.3-0.7-0.3c-2,0.4-3.6-0.3-4.8-1.9
			c-0.3-0.4-0.4-0.3-0.7,0c-1,1.1-1.9,2.3-3.2,3.2c-1.7,1.2-4,1.3-5.7,0.3c-1.2-0.8-1.4-2-0.4-3c0.3-0.3,0.6-0.6,0.9-0.9
			c1.9-1.8,3.5-3.8,5.6-5.5c0.3-0.2,0.2-0.3-0.1-0.4c-0.2-0.1-0.5-0.2-0.8-0.2C72.8,116.1,71,116.1,69.2,116.1z M67,136.1
			c0,0.8,0.3,1.3,1,1.6c0.5,0.2,1.3-0.1,1.8-0.7c1.1-1.5,2.2-2.9,3.4-4.4c0.6-0.8,0.5-1.8-0.2-2.3c-0.8-0.6-1.6-0.4-2.3,0.5
			c-1.1,1.4-2.2,2.9-3.3,4.3C67.2,135.4,67,135.7,67,136.1z M72.6,139.7c0.5,0,0.9-0.2,1.2-0.5c1.1-1.4,2.2-2.8,3.3-4.2
			c0.5-0.7,0.3-1.7-0.3-2.1c-0.6-0.5-1.6-0.3-2.1,0.3c-0.3,0.3-0.5,0.7-0.7,1c-0.8,1-1.6,2-2.3,3c-0.4,0.6-0.5,1.2-0.2,1.8
			C71.6,139.4,72,139.7,72.6,139.7z M80.1,137.9c0-0.8-0.4-1.3-1-1.5c-0.6-0.3-1.2-0.1-1.7,0.4c-0.7,0.8-1.3,1.7-2,2.5
			c-0.6,0.7-0.4,1.8,0.2,2.3c0.6,0.5,1.6,0.3,2.2-0.4c0.6-0.8,1.3-1.6,1.9-2.5C80,138.5,80.1,138.2,80.1,137.9z M65.2,134.6
			c0.4,0,0.8-0.1,1-0.4c0.7-0.9,1.4-1.7,2-2.7c0.4-0.6,0.2-1.5-0.3-1.9c-0.5-0.5-1.4-0.5-2,0.1c-0.8,0.8-1.6,1.7-2.1,2.8
			C63.3,133.5,64.1,134.6,65.2,134.6z"/>
		<path class="st9" d="M100.2,121.6c0,2.5,0.1,5.1,0,7.6c-0.1,2.5-0.1,4.9-0.1,7.4c0,0.7-0.3,0.9-1.2,0.8c-1.4-0.1-2.8,0-4.1,0
			c-0.3-0.5-0.4-0.9-0.4-1.4c0-4.5,0-9,0-13.5c0-0.3,0.2-0.6,0.3-0.8C96.5,121.5,98.4,121.6,100.2,121.6z"/>
		<path class="st10" d="M54.9,117.8c1.4,0,2.7,0,4.1,0c1,0,1.6,0.4,1.6,1.2c0,3.9,0,7.7-0.2,11.6c0,0.4,0,0.8,0.1,1.2
			c0.1,0.8-0.5,1.3-1.5,1.3c-1.4,0-2.8,0-4.2,0c0-1.7,0-3.4,0-5.1C54.6,124.6,55,121.2,54.9,117.8z"/>
	</g>
	<path class="st11" d="M69.2,116.1c-1.4,0-2.7,0.8-3.1,2.1c-0.2,0.6-0.5,1.2-1,1.6c-0.6,0.3-1.2,0.3-1.8,0.3c-0.1,0-0.2,0-0.4,0
		c-0.6-0.1-1,0-1,0.8c0,2.8-0.1,5.7-0.1,8.5c0,1.3,0,1.3,1.3,1.2c0.3,0.1,0.3-0.1,0.4-0.3c0.4-0.5,0.7-1,1.1-1.4
		c1-1.1,2.5-1.3,3.7-0.6c0.6,0.3,0.9,0.8,1.2,1.4c0,0,0.1,0,0.1,0c1.5-1.8,4.8-1.2,5.1,1.3c0.1,0.4,0.3,0.2,0.5,0.2
		c2.1-0.3,3.7,1.2,3.4,3.3c-0.1,0.4,0,0.4,0.3,0.4c1,0.2,1.8,0.8,2.2,1.8c0.3,0.9,1,1.5,1.6,2.2c0.6,0.6,1.6,0.4,1.9-0.5
		c0.2-0.6,0-1-0.4-1.4c-1.7-1.8-3.4-3.6-5.1-5.5c-0.5-0.5-1-1.1-1.5-1.7c-0.3-0.3-0.2-0.7,0.1-1c0.3-0.3,0.7-0.2,1,0
		c0.1,0.1,0.2,0.2,0.3,0.3c2.1,2.3,4.2,4.5,6.3,6.8c0.2,0.2,0.4,0.5,0.8,0.5c0.5,0.1,1-0.1,1.2-0.6c0.3-0.6,0.1-1.1-0.3-1.5
		c-2.3-2.5-4.5-5.1-6.8-7.6c-0.4-0.4-0.6-0.9-0.1-1.3c0.4-0.4,0.8,0,1.2,0.4c0.1,0.1,0.2,0.2,0.3,0.3c2.2,2.4,4.4,4.9,6.6,7.3
		c0.5,0.5,1.2,0.6,1.7,0.2c0.5-0.4,0.6-1.2,0.2-1.8c-0.2-0.4-0.5-0.7-0.8-1c-1.6-1.9-3.1-4-4.8-5.9c-0.2-0.2-0.3-0.3-0.7-0.3
		c-2,0.4-3.6-0.3-4.8-1.9c-0.3-0.4-0.4-0.3-0.7,0c-1,1.1-1.9,2.3-3.2,3.2c-1.7,1.2-4,1.3-5.7,0.3c-1.2-0.8-1.4-2-0.4-3
		c0.3-0.3,0.6-0.6,0.9-0.9c1.9-1.8,3.5-3.8,5.6-5.5c0.3-0.2,0.2-0.3-0.1-0.4c-0.2-0.1-0.5-0.2-0.8-0.2C72.8,116,71,116,69.2,116.1z"
		/>
	<path class="st11" d="M65.3,134.6c0.4,0,0.8-0.1,1-0.4c0.7-0.9,1.4-1.7,2-2.7c0.4-0.6,0.2-1.5-0.3-1.9c-0.5-0.5-1.4-0.5-2,0.1
		c-0.8,0.8-1.6,1.7-2.1,2.8C63.4,133.5,64.1,134.6,65.3,134.6z"/>
	<path class="st11" d="M66.9,136.2c0,0.8,0.3,1.3,1,1.6c0.5,0.2,1.3-0.1,1.8-0.7c1.1-1.5,2.2-2.9,3.4-4.4c0.6-0.8,0.5-1.8-0.2-2.3
		c-0.8-0.6-1.6-0.4-2.3,0.5c-1.1,1.4-2.2,2.9-3.3,4.3C67.1,135.5,66.9,135.8,66.9,136.2z"/>
	<path class="st11" d="M71.6,125.6c1.3,0.2,2.4-0.4,3.2-1.3c1-1.1,2-2.1,3-3.2c0.7-0.8,1.1-0.7,1.6,0.3c0.8,1.6,2.2,2.3,3.8,2
		c0.7-0.1,1.2-0.5,1.7-0.9c0.3-0.2,0.7-0.3,1,0.1c0.3,0.4,0.2,0.7-0.1,1c-0.2,0.2-0.4,0.3-0.6,0.4c2,2.1,3.6,4.5,5.5,6.7
		c1.5,1.7,0.5,4.3-1.7,4.5c-0.2,0-0.4,0-0.4,0.2c0,0.4-0.3,0.8-0.4,1.3c0.2,0,0.4,0,0.5-0.1c1-0.9,2.2-0.7,3.3-0.7
		c0.6,0,0.7-0.2,0.7-0.7c0-3.6,0-7.1,0-10.7c0-0.6,0.3-1.3-0.1-1.7c-0.4-0.4-1.1-0.1-1.7-0.1c-1.7,0-2.8-0.8-3.4-2.4
		c-0.4-1-1-1.8-1.9-2.4c-2.1-1.2-4.4-1.6-6.8-1.2c-1.3,0.1-2.4,0.7-3.4,1.6c-0.7,0.6-1.3,1.3-1.9,1.9c-1.2,1.2-2.4,2.5-3.6,3.7
		c-0.5,0.5-0.5,0.7,0.2,1C70.6,125.4,71.1,125.7,71.6,125.6z"/>
</g>
<g>
	<path class="st12" d="M70.5,246c-1.3,0-2.3,1-2.3,2.3c0,1.3,1,2.3,2.3,2.3s2.3-1,2.3-2.3C72.9,247.1,71.8,246,70.5,246 M70.5,252.2
		c-2.2,0-3.9-1.7-3.9-3.8c0-2.1,1.8-3.8,3.9-3.8c2.2,0,3.9,1.7,3.9,3.8C74.5,250.4,72.7,252.2,70.5,252.2"/>
	<path class="st12" d="M79.2,246.2c-1,0-1.9,0.8-1.9,1.8c0,1,0.8,1.8,1.9,1.8s1.9-0.8,1.9-1.8C81.1,247.1,80.3,246.2,79.2,246.2
		 M79.2,251.5c-1.9,0-3.5-1.5-3.5-3.4c0-1.9,1.6-3.4,3.5-3.4c1.9,0,3.5,1.5,3.5,3.4C82.7,249.9,81.2,251.5,79.2,251.5"/>
	<path class="st12" d="M61.6,246.2c-1,0-1.9,0.8-1.9,1.8c0,1,0.8,1.8,1.9,1.8c1,0,1.9-0.8,1.9-1.8C63.5,247.1,62.7,246.2,61.6,246.2
		 M61.6,251.5c-1.9,0-3.5-1.5-3.5-3.4c0-1.9,1.6-3.4,3.5-3.4c1.9,0,3.5,1.5,3.5,3.4C65.1,249.9,63.6,251.5,61.6,251.5"/>
	<path class="st12" d="M66.1,255.6c-0.2,0-0.3,0-0.5-0.1c-0.4-0.2-0.4-0.7-0.2-1.1c1.2-1.6,3.1-2.6,5.1-2.6c2,0,3.8,0.9,5,2.4
		c0.3,0.3,0.2,0.8-0.1,1.1c-0.3,0.3-0.9,0.2-1.1-0.1c-0.9-1.1-2.2-1.8-3.7-1.8c-1.5,0-2.9,0.7-3.8,1.9
		C66.6,255.5,66.3,255.6,66.1,255.6"/>
	<path class="st12" d="M76,258.7c-0.4,0-0.8-0.4-0.8-0.8c0-1-0.3-2-1-2.8c-0.3-0.3-0.2-0.8,0.1-1.1c0.3-0.3,0.9-0.2,1.1,0.1
		c0.9,1.1,1.3,2.4,1.3,3.8C76.8,258.3,76.5,258.7,76,258.7"/>
	<path class="st12" d="M65.1,258.7c-0.4,0-0.8-0.4-0.8-0.8c0-1.3,0.4-2.5,1.2-3.5c0.3-0.4,0.8-0.4,1.1-0.2c0.4,0.2,0.4,0.7,0.2,1.1
		c-0.6,0.8-0.9,1.7-0.9,2.6C65.9,258.3,65.5,258.7,65.1,258.7"/>
	<path class="st12" d="M83.9,257c-0.4,0-0.8-0.4-0.8-0.8c0-2.1-1.7-3.8-3.9-3.8c-1.6,0-3.1,1-3.6,2.4c-0.2,0.4-0.6,0.6-1,0.5
		c-0.4-0.2-0.6-0.6-0.5-1c0.8-2.1,2.9-3.5,5.1-3.5c3,0,5.5,2.4,5.5,5.3C84.7,256.7,84.3,257,83.9,257"/>
	<path class="st12" d="M57,257c-0.4,0-0.8-0.4-0.8-0.8c0-2.9,2.5-5.3,5.5-5.3c2.4,0,4.5,1.5,5.2,3.7c0.1,0.4-0.1,0.9-0.5,1
		c-0.4,0.1-0.9-0.1-1-0.5c-0.5-1.6-2-2.6-3.7-2.6c-2.1,0-3.9,1.7-3.9,3.8C57.8,256.7,57.4,257,57,257"/>
	<path class="st12" d="M78.5,246.1c-0.4,0-0.8-0.4-0.8-0.8v-13.7c0-0.4,0.4-0.8,0.8-0.8c0.4,0,0.8,0.4,0.8,0.8v13.7
		C79.3,245.8,78.9,246.1,78.5,246.1"/>
	<path class="st12" d="M78.5,232.5c-0.4,0-0.8-0.4-0.8-0.8v-7H63.4v7c0,0.4-0.4,0.8-0.8,0.8c-0.4,0-0.8-0.4-0.8-0.8v-8.6h17.5v8.6
		C79.3,232.1,78.9,232.5,78.5,232.5"/>
	<path class="st12" d="M62.6,246.2c-0.4,0-0.8-0.4-0.8-0.8v-13.8c0-0.4,0.4-0.8,0.8-0.8c0.4,0,0.8,0.4,0.8,0.8v13.8
		C63.4,245.9,63,246.2,62.6,246.2"/>
	<path class="st12" d="M86.8,252.5c-0.4,0-0.8-0.4-0.8-0.8v-19.2h-7.5c-0.4,0-0.8-0.3-0.8-0.8c0-0.4,0.4-0.8,0.8-0.8h9.1v20.8
		C87.6,252.1,87.2,252.5,86.8,252.5"/>
	<path class="st12" d="M54.3,252.5c-0.4,0-0.8-0.4-0.8-0.8v-20.8h9.1c0.4,0,0.8,0.3,0.8,0.8c0,0.4-0.4,0.8-0.8,0.8h-7.5v19.2
		C55.1,252.1,54.7,252.5,54.3,252.5"/>
	<rect x="65.5" y="228" class="st12" width="3.5" height="3.4"/>
	<rect x="65.5" y="234" class="st12" width="3.5" height="3.4"/>
	<rect x="56.7" y="234.8" class="st12" width="3.5" height="3.4"/>
	<rect x="56.7" y="240.7" class="st12" width="3.5" height="3.4"/>
	<rect x="80.8" y="234.8" class="st12" width="3.5" height="3.4"/>
	<rect x="80.8" y="240.7" class="st12" width="3.5" height="3.4"/>
	<rect x="65.5" y="239.9" class="st12" width="3.5" height="3.4"/>
	<rect x="72" y="228" class="st12" width="3.5" height="3.4"/>
	<rect x="72" y="234" class="st12" width="3.5" height="3.4"/>
	<rect x="72" y="239.9" class="st12" width="3.5" height="3.4"/>
</g>
<text transform="matrix(1 0 0 1 109.3251 307.9354)" class="st4 st2 st6">Large offer of coworking spaces</text>
<text transform="matrix(1 0 0 1 99.021 338.7303)"><tspan x="0" y="0" class="st1 st2 st6">Several Regular Startups </tspan><tspan x="0" y="9.5" class="st1 st2 st6">Events &amp; Competitions</tspan></text>
<g>
	<path class="st13" d="M104.1,283.7c0.5-1.2,1.3-2.2,2.4-2.8c2-1.1,4-1.1,5.9,0.2c2,1.3,2.8,3.2,2.4,5.5c-0.3,2.2-1.6,3.7-3.7,4.4
		c0,0,0,0,0,0.1c-0.3,0-0.5,0.4-0.9,0.3c-1.5,0.1-3-0.2-4.2-1.2c-0.5-0.4-0.7-0.3-1,0.1c-0.8,0.9-1.6,1.7-2.4,2.5
		c-0.4,0.4-0.5,0.7-0.1,1.2c2.4,3.6,2.3,7.8-0.2,11.3c-0.4,0.5-0.3,0.8,0.1,1.2c1.6,1.8,3.2,3.5,4.7,5.3c0.4,0.4,0.6,0.5,1.1,0.2
		c1.3-0.8,3-0.4,4,0.9c0.9,1.1,0.8,2.8-0.1,4c-0.8,1.1-2.6,1.4-3.8,0.8c-1.3-0.6-2.1-2.2-1.7-3.6c0.1-0.5,0-0.9-0.3-1.2
		c-1.6-1.8-3.2-3.6-4.8-5.4c-0.5-0.6-0.8-0.5-1.3-0.1c-3.4,2.7-8.8,2.5-12-0.3c-3.7-3.3-4.6-8.1-2.1-12.5c0.3-0.5,0.3-0.9-0.1-1.3
		c-1-1.2-2-2.4-3-3.7c-0.6-0.8-1.1-1-1.9-0.4c-0.4,0.3-0.9,0.3-1.3,0.4c-2.3,0.4-4.7-0.8-5.8-2.9c-1.1-2.2-0.8-4.8,1-6.6
		c1.6-1.7,4.3-2.1,6.4-1.1c3.1,1.5,4.1,5.3,2.2,8.1c-0.3,0.5-0.3,0.8,0.1,1.2c1,1.2,2.1,2.5,3,3.7c0.5,0.6,0.7,0.6,1.3,0.1
		c3.8-3.3,8.7-3.3,12.6-0.2c0.4,0.3,0.6,0.3,0.9,0c0.9-1,1.8-1.9,2.7-2.8c0.3-0.3,0.4-0.6,0.2-0.9c-0.6-1.1-0.7-2.3-0.6-3.6
		C103.9,284.3,104,284,104.1,283.7z M101.7,295.4L101.7,295.4c0-0.3-0.1-0.5-0.4-0.6l0,0c-0.1-0.1-0.1-0.3-0.2-0.4
		c-2.1-2.7-5.7-4-9-3c-1.8,0.5-3.4,1.4-4.4,3.1l0,0c-0.6,0.1-0.6,0.7-0.8,1.1c-0.5,0.9-0.8,1.9-0.9,3c-0.6,5.8,4.5,10,9.6,9.3
		c5.7-0.8,9-7.1,6.4-12.1C101.9,295.6,101.9,295.4,101.7,295.4z M109.2,289.9c2.4,0.1,4.4-1.8,4.4-4.1c0.1-2.4-1.8-4.4-4.2-4.5
		c-2.4-0.1-4.5,1.9-4.5,4.3C104.9,287.9,106.9,289.9,109.2,289.9z M74.5,284c0,2.3,1.9,4.3,4.2,4.4c2.4,0,4.4-1.9,4.4-4.2
		c0-2.4-1.9-4.4-4.3-4.4C76.5,279.7,74.6,281.6,74.5,284z M107.8,314.7c0,1,0.8,1.9,1.8,1.9c1,0,1.9-0.9,1.9-1.9c0-1-0.9-2-1.8-2
		C108.6,312.9,107.8,313.5,107.8,314.7z"/>
	<path class="st14" d="M109.2,289.8c-2.4-0.1-4.3-2.1-4.3-4.4c0.1-2.4,2.1-4.4,4.5-4.3c2.4,0.1,4.2,2.1,4.2,4.5
		C113.6,288,111.6,289.8,109.2,289.8z"/>
	<path class="st14" d="M74.5,283.8c0-2.4,2-4.3,4.3-4.3c2.5,0,4.4,2,4.3,4.4c0,2.4-2,4.3-4.4,4.2C76.4,288.2,74.5,286.2,74.5,283.8z
		"/>
	<path class="st14" d="M107.8,314.7c0-1.1,0.9-1.8,2-1.9c0.9-0.1,1.8,1,1.8,2c0,1-0.9,1.9-1.9,1.9
		C108.6,316.6,107.8,315.7,107.8,314.7z"/>
</g>
<g>
	<path class="st12" d="M80.6,323.5c5.4,0,9.9,4.4,9.9,9.9c0,5.4-4.4,9.9-9.9,9.9c-5.4,0-9.9-4.4-9.9-9.9
		C70.8,328,75.2,323.5,80.6,323.5 M69.2,333.4c0,6.3,5.1,11.4,11.4,11.4S92,339.7,92,333.4c0-6.3-5.1-11.4-11.4-11.4
		S69.2,327.1,69.2,333.4"/>
	<path class="st12" d="M78.7,331.6c0.2,0,0.5-0.2,0.6-0.4l1.3-2.7l1.3,2.7c0.1,0.2,0.3,0.4,0.6,0.4l3,0.4l-2.1,2.1
		c-0.2,0.2-0.3,0.4-0.2,0.7l0.5,3l-2.7-1.4c-0.1-0.1-0.2-0.1-0.3-0.1s-0.2,0-0.3,0.1l-2.7,1.4l0.5-3c0-0.2,0-0.5-0.2-0.7l-2.1-2.1
		L78.7,331.6z M73.6,332.1l2.9,2.9l-0.7,4.1c0,0.3,0.1,0.6,0.3,0.7c0.2,0.2,0.5,0.2,0.8,0.1l3.7-1.9l3.7,1.9
		c0.3,0.1,0.6,0.1,0.8-0.1c0.2-0.2,0.3-0.5,0.3-0.7l-0.7-4.1l2.9-2.9c0.2-0.2,0.3-0.5,0.2-0.8c-0.1-0.3-0.3-0.5-0.6-0.5l-4.1-0.6
		l-1.8-3.7c-0.1-0.3-0.4-0.4-0.7-0.4s-0.6,0.2-0.7,0.4l-1.8,3.7l-4.1,0.6c-0.3,0-0.5,0.2-0.6,0.5C73.3,331.6,73.4,331.9,73.6,332.1"
		/>
	<path class="st12" d="M81.4,319.8c0,0.4-0.3,0.8-0.8,0.8c-0.4,0-0.8-0.3-0.8-0.8s0.3-0.8,0.8-0.8C81,319,81.4,319.3,81.4,319.8"/>
	<path class="st12" d="M88.5,350.6c-0.4-0.1-0.7,0.1-0.9,0.5l-1.5,4.2l-4.3-7.5c2.6-0.2,5.1-1.2,7.2-2.7l3.6,6.4L88.5,350.6z
		 M75.1,355.3l-1.5-4.2c-0.1-0.4-0.5-0.6-0.9-0.5l-4.2,0.9l3.6-6.4c2.1,1.5,4.6,2.5,7.2,2.7L75.1,355.3z M77,319.4
		c-6.4,1.6-10.8,7.4-10.8,14c0,4.1,1.7,8,4.7,10.7l-4.6,8.1c-0.1,0.3-0.1,0.6,0,0.8c0.2,0.2,0.5,0.4,0.8,0.3l5.2-1.1l1.8,5.1
		c0.1,0.3,0.4,0.5,0.6,0.5c0.3,0,0.6-0.1,0.7-0.4l5-8.9l5,8.9c0.1,0.2,0.4,0.4,0.7,0.4c0,0,0,0,0.1,0c0.3,0,0.5-0.2,0.6-0.5l1.8-5.1
		l5.2,1.1c0.3,0.1,0.6-0.1,0.8-0.3c0.2-0.2,0.2-0.6,0-0.8l-4.6-8.1c3-2.7,4.7-6.6,4.7-10.7c0-6.6-4.5-12.3-10.8-14
		c-0.4-0.1-0.8,0.1-0.9,0.5c-0.1,0.4,0.1,0.8,0.5,0.9c5.7,1.5,9.7,6.6,9.7,12.5c0,7.2-5.8,12.9-12.9,12.9c-7.1,0-12.9-5.7-12.9-12.9
		c0-5.9,4-11,9.7-12.5c0.4-0.1,0.7-0.5,0.5-0.9C77.9,319.6,77.4,319.3,77,319.4"/>
</g>
<g>
	<line class="st15" x1="159.5" y1="213.7" x2="157.4" y2="215.8"/>
	<g>
		<g>
			<path d="M182.1,198.7c-1.2,1.2-4.2,2.9-5.7,2.5c-0.4-1.5,1.3-4.5,2.5-5.7c0.3-0.3,0.7-0.6,1.1-0.8c-1.5,0.2-2.9,0.9-4.1,2
				c-1.9,1.9-3.8,5.8-3.2,8.1c2.4,0.6,6.3-1.4,8.1-3.2c1.1-1.1,1.8-2.6,2-4.1C182.7,198.1,182.4,198.4,182.1,198.7z"/>
		</g>
		<line class="st15" x1="166.8" y1="211.3" x2="160.2" y2="217.9"/>
		<line class="st15" x1="169.5" y1="203.7" x2="161.9" y2="211.3"/>
		<line class="st15" x1="174.4" y1="208.7" x2="170" y2="213"/>
		<line class="st15" x1="166.9" y1="216.2" x2="159.3" y2="223.8"/>
		<path d="M181.9,187.9h-1.6c-1.8,0-3.6,0.7-4.9,2l-2.6,2.6l6.2,0.3"/>
		<path d="M189.2,195.3v1.6c0,1.8-0.7,3.6-2,4.9l-2.6,2.6l-0.3-6.2"/>
		<g>
			<path class="st12" d="M198.7,178.8c-0.1-0.1-0.3-0.2-0.5-0.2c-5.7,0.3-11.1,2.7-15.2,6.7c-0.6,0.6-1.2,1.3-1.8,2h-1
				c-2,0-3.9,0.8-5.4,2.2l-2.6,2.6c-0.2,0.2-0.2,0.4-0.1,0.7c0.1,0.2,0.3,0.4,0.5,0.4l5.2,0.3c0,0.1,0.1,0.2,0.1,0.2l5.6,5.6
				l0.3,5.1c0,0.2,0.2,0.5,0.4,0.5c0.1,0,0.1,0,0.2,0c0.2,0,0.3-0.1,0.4-0.2l2.6-2.6c1.4-1.4,2.2-3.3,2.2-5.4v-0.4
				c0.8-0.6,1.6-1.3,2.3-2c0,0,0,0,0,0c4.1-4.1,6.5-9.5,6.7-15.2C198.9,179.1,198.9,178.9,198.7,178.8z M174.2,192l1.6-1.6
				c1.2-1.2,2.8-1.9,4.5-1.9h0.1c-0.8,1.2-1.5,2.4-2.1,3.7L174.2,192z M184.4,198.2L184.4,198.2l-5.1-5.1c0.6-1.4,1.3-2.7,2.2-3.9
				l6.9,6.9C187.1,196.9,185.8,197.7,184.4,198.2z M186.8,201.4l-1.6,1.6l-0.2-3.6c1.3-0.5,2.5-1.2,3.7-2
				C188.5,198.9,187.8,200.3,186.8,201.4z M191.3,193.6c-0.6,0.6-1.3,1.2-1.9,1.7h-0.2l-7.1-7.1c0.6-0.7,1.1-1.4,1.8-2
				c1.8-1.8,3.8-3.2,6-4.3l5.6,5.6C194.5,189.8,193.1,191.8,191.3,193.6z M196.1,186.4l-4.9-4.9c2.1-0.8,4.2-1.4,6.5-1.5
				C197.5,182.1,196.9,184.3,196.1,186.4z"/>
			<path class="st12" d="M187.1,186.2c-1.2,1.2-1.2,3,0,4.2c0.6,0.6,1.3,0.9,2.1,0.9c0.8,0,1.5-0.3,2.1-0.9c1.2-1.2,1.2-3,0-4.2
				C190.1,185,188.3,185,187.1,186.2z M190.4,189.5c-0.7,0.7-1.8,0.7-2.5,0c-0.7-0.7-0.7-1.8,0-2.5c0.3-0.3,0.8-0.5,1.2-0.5
				c0.4,0,0.9,0.2,1.2,0.5C191.1,187.8,191.1,188.9,190.4,189.5z"/>
		</g>
	</g>
</g>
<g>
	<path class="st11" d="M207.9,382.2c-2.5,1.7-4.6,3.9-5.9,6.6c-1.3,2.7-1.7,5.9-0.6,8.7c0.1,0.3,0.3,0.6,0.5,0.9
		c0.5,0.5,1.2,0.6,1.8,0.8c6.7,1.1,13.6,1,20.4,0.9c2.4,0,4.9-0.1,7.3-0.1c9.2-0.2,18.4-0.3,27.5-0.5c1.2,0,2.5-0.1,3.6-0.5
		c1.8-0.8,3.1-2.6,3.5-4.5c0.4-1.9,0-4-0.8-5.8c-1.3-3-3.6-5.5-5.9-7.9c-0.8-0.9-1.7-1.8-2.8-2.4c-2.3-1.4-5.3-1.3-8-1.2
		c-5.8,0.3-11.6,0.6-17.5,0.9c-2.9,0.1-5.8,0.3-8.8,0.4c-2.2,0.1-4.3-0.2-6.4,0.3C213,379.3,210.3,380.5,207.9,382.2z"/>
	<path class="st11" d="M222.5,339.3c-1.1,0-1.7,1.1-2.1,2.1c-0.3,0.9-0.6,1.9-0.9,2.9c-0.2,0.6-0.3,1.2-0.7,1.7
		c-0.5,0.7-1.3,1-1.9,1.6c-0.7,0.8-0.9,2-0.5,3c0.2,0.4,0.4,0.8,0.5,1.2c0,0.3-0.1,0.6-0.2,0.9c-0.7,2.4-0.6,4.9,0.3,7.3
		c0.2,0.5,0.4,1,0.4,1.5c0,0.6-0.2,1.3-0.5,1.9c-0.9,2.1-1.9,4.2-2.8,6.3c-0.5,1-0.9,2.1-0.8,3.2c0.1,1.1,1.1,2.2,2.2,2.1
		c1.1-0.1,1.8-1.4,2.2-2.4c0.9-2.1,1.7-4.2,2.6-6.2c0.2-0.4,0.3-0.8,0.7-1.1c0.3-0.3,0.9-0.3,1.2,0c0.2,0.2,0.2,0.6,0.2,0.9
		c0,1-0.1,1.9-0.1,2.9c0,0.3,0,0.7,0.1,1c0.1,0.2,0.2,0.4,0.4,0.6c0.9,1,2.2,1.7,3.5,1.7c0.8,0.1,1.6-0.1,2.3,0.3
		c0.6,0.2,1,0.8,1.6,0.9c1.2,0.3,2.2-0.7,3.1-1.6c1.9-1.8,4.4-2.9,6.9-4c0.6-0.3,1.4-0.8,1.2-1.5c-0.1-0.2-0.3-0.4-0.5-0.6
		c-0.8-0.8-1.5-1.8-1.8-2.8c-0.1-0.3-0.2-0.6-0.1-1c0.1-0.4,0.2-0.7,0.4-1c0.7-1.4,0.9-3,0.8-4.6c-0.1-1.6-0.4-3.1-0.7-4.6
		c-0.1-0.3-0.1-0.6,0.1-0.9c0.2-0.3,0.6-0.3,0.9-0.6c0.5-0.4,0.1-1.2-0.3-1.7c-0.8-1.2-1.7-2.3-2.5-3.5c-0.2-0.3-0.4-0.6-0.5-1
		c-0.1-0.4,0-0.9-0.1-1.3c-0.1-0.5-0.4-0.9-0.7-1.3c-1-1.3-2-2.5-3.3-3.4c-3.2-2.3-8.1-1.8-10.8,1c-0.1-0.1-0.2-0.2-0.3-0.2"/>
	<g>
		<path class="st16" d="M230.2,336.2c4.3,0.9,7.4,4.2,7.9,8.6c0.1,0.5,0.3,0.8,0.7,1c2.1,1.2,3.1,3.7,1.8,5.9
			c-0.2,0.3-0.1,0.5,0,0.8c1.4,3,1,6-0.3,8.9c-0.3,0.7-0.4,1.2,0,1.9c0.5,0.8,1,1.8,1.4,2.7c0.3,0.6,0.6,0.7,1.2,0.5
			c1.8-0.5,3.7-0.8,5.6-1c2.3-0.2,4.6-0.3,6.6,1.3c1.9,1.5,2.7,3.5,2.9,5.8c0.1,1.4,0,2.9-0.4,4.2c-0.2,0.6-0.1,1.1,0.5,1.5
			c0.3,0.2,0.6,0.6,0.9,0.8c2.1,2.3,4.1,4.6,5.5,7.3c1.3,2.4,2.3,5,2.2,7.8c-0.1,2-1.2,3.4-2.8,4.4c-2,1.1-4.2,1.6-6.4,1.8
			c-5.6,0.6-11.2,0.3-16.8,0.2c-1.1,0-2.3-0.1-3.4,0c-0.3,0-0.5-0.1-0.8-0.1c-4.2,0-8.3,0.2-12.5,0.4c-5.2,0.2-10.4,0.5-15.6,0.3
			c-2.1-0.1-4.1-0.4-6-1.2c-1.1-0.5-1.9-1.2-2.4-2.4c-0.7-1.8-0.6-3.6-0.2-5.4c0.9-4,3-7.1,6.1-9.7c3.4-2.9,7.4-4.4,11.8-4.9
			c0.8-0.1,0.9-0.4,1-1c0.2-1.6,0.7-3.2,1.7-4.4c1-1.2,1.2-2.4,1.1-3.8c0-0.2,0.1-0.5-0.2-0.6c-0.4-0.1-0.4,0.2-0.5,0.5
			c-1,2.1-1.9,4.2-2.9,6.3c-0.7,1.4-2.5,1.9-4,1.2c-1.5-0.7-2.1-2.2-1.4-3.7c1.3-2.8,2.5-5.5,3.8-8.3c0.4-0.9,0.4-1.5,0-2.3
			c-1.2-2.5-1.6-5.1-0.7-7.8c0.3-1,0.8-1.9,0.1-2.9c-0.5-2.2,0.5-3.7,2.3-4.9c0.4-0.3,0.6-0.5,0.6-1c0.7-4.7,3.7-7.7,8.3-8.6
			C228,336,229.1,336.1,230.2,336.2z M243.9,394.7c4.2,0.2,7.1-3.1,7-6.7c-0.1-2.2,0.5-2.2-2.3-2c0,0-0.1,0-0.1,0
			c-1.2,0.2-2.3,0.7-3.2,1.5c-2,1.8-2.3,4.1-2.2,6.6C243.2,394.7,243.6,394.7,243.9,394.7z M256.4,394.3c0.9,0.5,1.9,0.5,2.9,0.5
			c0.5,0,0.8-0.3,0.7-0.8c0-0.6,0-1.3,0-1.9c-0.1-3.3-3.2-6.2-6.5-6.1c-1.2-0.1-1.2-0.1-1.2,1.2c0,0.5,0,1,0,1.5
			C252.4,391.1,254.1,393.5,256.4,394.3z M218.4,359.2c0.2-0.7,0.7-0.8,1.3-0.8c1.7,0.1,3.3,0,5,0c0.3,0,0.7,0.1,0.8-0.4
			c0.4-1.6,0-2.2-1.6-2.2c-0.2,0-0.4,0-0.6,0c-1.5,0-2.7-1.1-2.7-2.6c-0.1-1.6,0-3.2,0-4.8c0-0.6,0.2-0.9,0.8-1
			c0.3-0.1,0.6-0.2,0.9-0.3c2.7-1.3,5.2-2.7,5.4-6.1c0-0.3,0.2-0.5,0.5-0.5c0.3,0,0.6,0.1,0.7,0.4c0.1,0.2,0.1,0.5,0.1,0.7
			c0.1,1.3,0.7,2.3,1.6,3.2c1.2,1.2,2.7,2,4.4,2.6c0.8,0.2,1.1,0.6,1.1,1.5c-0.1,1.3-0.1,2.6,0,3.9c0.2,2-1.4,3.4-3.3,3.3
			c-1.8-0.1-1.8-0.5-1.8,1.8c0,0.7,0.3,0.9,0.9,0.9c1.5,0,2.9,0.1,4.4,0c1.1-0.1,1.8,0.2,2.1,1.3c0.1,0.2,0.2,0.6,0.5,0.5
			c0.3,0,0.3-0.4,0.4-0.6c0.7-2.4,0.9-4.8-0.5-7.1c-0.2-0.4-0.2-0.7,0-1c1.6-2.1,0.5-3.6-1.2-4.6c-0.8-0.5-1.1-1-1.1-1.9
			c-0.2-4.1-4.1-7.6-8.3-7.4c-4-0.3-8.3,3.3-8.4,7.8c0,0.7-0.3,1-0.9,1.3c-1.8,1-3,2.6-1.4,4.7c0.2,0.3,0.3,0.6,0,1
			c-1.5,2.1-1.4,4.4-0.8,6.7c0.1,0.4,0.1,1.1,0.7,1.1C218.3,360.3,218.2,359.6,218.4,359.2z M228.4,386.5c2.1,0.2,4.1,0.1,6.1-0.3
			c4.6-0.9,8.2-3.4,10.9-7.2c0.8-1.1,1.5-2.1,2.6-3c0.4-0.3,0.8-0.5,1.3-0.6c1.3-0.1,2.1,0.8,2.2,2.4c0.1,1.9-0.3,3.7-0.7,5.5
			c-0.1,0.4-0.4,0.8,0,1c0.5,0.2,1.1,0.3,1.6-0.2c0.2-0.1,0.3-0.3,0.4-0.5c0.7-1,1.4-2,1.9-3.1c1.3-2.9,2.2-5.8,1.7-9
			c-0.4-2.8-1.9-4.3-4.6-4.8c-1.1-0.2-2.2-0.1-3.3,0c-6.3,0.7-12.1,2.5-16.4,7.5c-0.4,0.5-0.8,0.5-1.3,0.3c-2.4-0.8-4.9-1.6-7.4-2.4
			c-0.5-0.2-1-0.5-1.5,0.1c-1.9,2.7-2.5,5.6-1.5,8.7C221.5,384.6,224.7,386.3,228.4,386.5z M211.2,380.9c-1.7,0.7-3.2,1.7-4.6,2.9
			c-3.4,3.1-5.8,6.8-5.7,11.6c0,1.7,0.7,3.2,2.7,3.7c0.8,0.4,1.7,0.5,2.6,0.6c4.7,0.6,9.5,0.3,14.2,0.1c5.2-0.2,10.4-0.6,15.6-0.6
			c6,0,12.1,0.4,18.1,0.1c2.6-0.1,5.2-0.4,7.6-1.3c2.5-0.9,3.8-2.7,3.5-4.9c-0.1-0.9-0.3-1.8-0.6-2.6c-1-3.3-2.9-6.1-5.1-8.6
			c-0.8-0.9-1.6-1.9-2.6-2.7c-0.6,1.7-1.3,3.2-2.3,4.6c-0.5,0.7-0.3,0.9,0.5,1.1c2.4,0.5,4.2,1.9,5.4,4.2c1.2,2.2,0.8,4.6,0.8,6.9
			c0,0.3-0.2,0.3-0.4,0.4c-3.6,0.2-6.9-0.3-9-3.7c-0.3-0.6-0.6-0.5-0.9,0c-0.6,0.9-1.4,1.7-2.3,2.3c-2,1.4-4.4,1.4-6.7,1.4
			c-0.5,0-0.4-0.4-0.4-0.6c0-1.2,0-2.3,0-3.5c0.1-1.5,0.5-2.9,1.4-4.2c1.2-1.7,2.8-2.8,4.9-3.2c0.4-0.1,0.9,0,1.1-0.6
			c0.5-1.7,0.9-3.5,1-5.3c0-0.5-0.2-0.6-0.6-0.6c-1-0.1-1.7,0.1-2.3,1c-1,1.5-2.2,2.8-3.5,4c-5,4.4-10.8,5.5-17.2,4.4
			c-4.3-0.8-7.1-3.3-7.8-7.8c-0.1-0.8-0.5-0.9-1.1-0.8C215.4,379.4,213.2,379.9,211.2,380.9z M234.7,351c0-0.5-0.1-1.1,0-1.6
			c0.1-0.8-0.2-1.1-0.9-1.4c-1.9-0.8-3.7-1.9-4.9-3.6c-0.3-0.4-0.7-0.5-1,0c-1.4,1.8-3.2,2.9-5.2,3.7c-0.5,0.2-0.7,0.4-0.7,1
			c0,1.2,0,2.4,0,3.6c0,1.1,0.5,1.5,1.5,1.5c0.8,0,1.6,0,2.4,0c0.8,0,1.2,0.3,1.1,1.1c-0.1,1-0.1,2.1,0,3.1c0,0.9-0.3,1.2-1.1,1.2
			c-0.3,0-0.5,0-0.8,0c-2.3,0-2.3,0-2.1,2.3c0,0.5,0.2,0.7,0.7,0.5c1.4-0.4,2.9-0.4,4.2,0.4c0.4,0.2,0.7,0,1-0.1
			c0.9-0.5,1.9-0.6,2.9-0.5c2.1,0.3,2.1,0.3,1.9-1.8c0,0,0-0.1,0-0.1c0-0.5-0.2-0.7-0.8-0.7c-0.8,0-1.6,0-2.3,0c-0.7,0-1-0.3-1-1.1
			c0-1.1,0-2.2,0-3.3c0-0.8,0.3-1.1,1-1.1c0.9,0,1.8,0,2.7,0c0.9,0,1.3-0.5,1.3-1.4C234.7,352.3,234.7,351.7,234.7,351z
			 M221.6,361.7c0-0.5,0-0.9,0-1.3c0-0.2,0-0.4-0.2-0.5c-0.6-0.4-1.7,0-2,0.7c-1.8,3.9-3.6,7.8-5.4,11.8c-0.4,1-0.2,1.7,0.6,2.1
			c0.9,0.4,1.9,0.1,2.3-0.8c1.4-3.1,2.8-6.2,4.3-9.3C221.5,363.3,221.8,362.5,221.6,361.7z M233.8,369.8c0-0.4,0-0.7,0-0.9
			c0-0.5-0.2-0.7-0.7-0.5c-1.6,0.7-3,0.5-4.3-0.7c-0.3-0.2-0.4-0.3-0.8,0c-1.3,1.2-2.7,1.5-4.4,0.7c-0.2-0.1-0.4-0.2-0.6,0
			c-0.5,0.6,0,2.3,0.8,2.5c1.7,0.6,3.4,1,5,1.7c1.7,0.8,3,0.6,4.2-1C233.5,371,234,370.5,233.8,369.8z M235.1,361.6
			c-0.1,0.8,0.1,1.6,0.6,2.5c0.5,0.9,0.9,1.8,1.3,2.6c0.8,1.7,0.8,1.7,2.5,1c0.2-0.1,0.4-0.2,0.6-0.2c0.5-0.2,0.6-0.4,0.3-0.9
			c-1-2-2.1-4-3-6.1c-0.4-1-1.2-0.8-1.8-0.7c-0.8,0-0.5,0.8-0.5,1.2C235.1,361.1,235.1,361.3,235.1,361.6z M225.2,363.8
			c-0.8,0-1.7,0-2.1,0.8c-0.3,0.8,0,1.6,0.6,2.2c0.4,0.4,0.9,0.6,1.4,0.7c1.2,0.1,2.5-1,2.5-2.2c0-0.9-0.7-1.4-2.1-1.5
			C225.5,363.8,225.4,363.8,225.2,363.8z M231.5,363.8c-0.2,0-0.5,0-0.7,0c-0.6,0.1-1.4,0.1-1.6,1c-0.2,0.7,0.2,1.8,0.8,2.2
			c0.8,0.6,1.8,0.6,2.6,0.1c0.7-0.4,1.2-1.5,1.1-2.3c-0.2-1-1-0.9-1.7-1.1C231.8,363.7,231.6,363.8,231.5,363.8z M235.2,368.3
			C235.2,368.3,235.2,368.3,235.2,368.3c0,0.1,0,0.3,0,0.4c0,0.3-0.1,0.7,0.3,0.8c0.2,0,0.5-0.1,0.7-0.3c0.3-0.2,0.2-0.5,0.1-0.8
			c-0.2-0.3-0.3-0.6-0.4-0.9c-0.1-0.2-0.2-0.3-0.4-0.3c-0.2,0-0.2,0.2-0.3,0.4C235.2,367.9,235.2,368.1,235.2,368.3z"/>
		<path class="st11" d="M252.9,384.8c-0.3,0.3-0.8,0.5-1.3,0.5c-0.3,0-0.7-0.1-1-0.2c-0.4-0.2-0.6-0.5-0.6-0.9
			c0-0.2,0.1-0.5,0.2-0.6c0-0.1,0.1-0.2,0.1-0.2c0.4-1.6,0.8-3.5,0.7-5.3c0-0.7-0.3-1.9-1.4-1.9c0,0-0.1,0-0.1,0
			c-0.3,0-0.6,0.2-1,0.4c-0.9,0.7-1.6,1.6-2.3,2.6c-0.1,0.1-0.1,0.2-0.2,0.3c-1.5,2-3.1,3.6-4.9,4.8c-1.9,1.3-4.1,2.2-6.4,2.6
			c-1.4,0.3-2.8,0.4-4.1,0.4c-0.7,0-1.5,0-2.2-0.1c-4.4-0.3-7.5-2.4-8.5-5.8c-1-3.2-0.5-6.3,1.6-9.2c0.3-0.4,0.7-0.7,1.2-0.7
			c0.4,0,0.7,0.1,0.9,0.3c0,0,0.1,0,0.1,0c0.6,0.2,1.3,0.4,1.9,0.6c1.8,0.6,3.6,1.2,5.4,1.8c0.2,0.1,0.3,0.1,0.4,0.1
			c0.1,0,0.1,0,0.3-0.2c2.1-2.4,4.6-4.2,7.7-5.5c2.6-1.1,5.5-1.8,9.1-2.2l0.1,0c0.6-0.1,1.3-0.2,2-0.2c0.5,0,1,0,1.4,0.1
			c3,0.6,4.6,2.3,5.1,5.3c0.6,3.7-0.6,6.9-1.7,9.3c-0.5,1.2-1.2,2.2-2,3.2c0,0-0.1,0.1-0.1,0.1C253.2,384.5,253,384.6,252.9,384.8z"
			/>
		<path class="st16" d="M230.2,336.2c4.3,0.9,7.4,4.2,7.9,8.6c0.1,0.5,0.3,0.8,0.7,1c2.1,1.2,3.1,3.7,1.8,5.9
			c-0.2,0.3-0.1,0.5,0,0.8c1.4,3,1,6-0.3,8.9c-0.3,0.7-0.4,1.2,0,1.9c0.5,0.8,1,1.8,1.4,2.7c0.3,0.6,0.6,0.7,1.2,0.5
			c1.8-0.5,3.7-0.8,5.6-1c2.3-0.2,4.6-0.3,6.6,1.3c1.9,1.5,2.7,3.5,2.9,5.8c0.1,1.4,0,2.9-0.4,4.2c-0.2,0.6-0.1,1.1,0.5,1.5
			c0.3,0.2,0.6,0.6,0.9,0.8c2.1,2.3,4.1,4.6,5.5,7.3c1.3,2.4,2.3,5,2.2,7.8c-0.1,2-1.2,3.4-2.8,4.4c-2,1.1-4.2,1.6-6.4,1.8
			c-5.6,0.6-11.2,0.3-16.8,0.2c-1.1,0-2.3-0.1-3.4,0c-0.3,0-0.5-0.1-0.8-0.1c-4.2,0-8.3,0.2-12.5,0.4c-5.2,0.2-10.4,0.5-15.6,0.3
			c-2.1-0.1-4.1-0.4-6-1.2c-1.1-0.5-1.9-1.2-2.4-2.4c-0.7-1.8-0.6-3.6-0.2-5.4c0.9-4,3-7.1,6.1-9.7c3.4-2.9,7.4-4.4,11.8-4.9
			c0.8-0.1,0.9-0.4,1-1c0.2-1.6,0.7-3.2,1.7-4.4c1-1.2,1.2-2.4,1.1-3.8c0-0.2,0.1-0.5-0.2-0.6c-0.4-0.1-0.4,0.2-0.5,0.5
			c-1,2.1-1.9,4.2-2.9,6.3c-0.7,1.4-2.5,1.9-4,1.2c-1.5-0.7-2.1-2.2-1.4-3.7c1.3-2.8,2.5-5.5,3.8-8.3c0.4-0.9,0.4-1.5,0-2.3
			c-1.2-2.5-1.6-5.1-0.7-7.8c0.3-1,0.8-1.9,0.1-2.9c-0.5-2.2,0.5-3.7,2.3-4.9c0.4-0.3,0.6-0.5,0.6-1c0.7-4.7,3.7-7.7,8.3-8.6
			C228,336,229.1,336.1,230.2,336.2z M243.9,394.7c4.2,0.2,7.1-3.1,7-6.7c-0.1-2.2,0.5-2.2-2.3-2c0,0-0.1,0-0.1,0
			c-1.2,0.2-2.3,0.7-3.2,1.5c-2,1.8-2.3,4.1-2.2,6.6C243.2,394.7,243.6,394.7,243.9,394.7z M256.4,394.3c0.9,0.5,1.9,0.5,2.9,0.5
			c0.5,0,0.8-0.3,0.7-0.8c0-0.6,0-1.3,0-1.9c-0.1-3.3-3.2-6.2-6.5-6.1c-1.2-0.1-1.2-0.1-1.2,1.2c0,0.5,0,1,0,1.5
			C252.4,391.1,254.1,393.5,256.4,394.3z M218.4,359.2c0.2-0.7,0.7-0.8,1.3-0.8c1.7,0.1,3.3,0,5,0c0.3,0,0.7,0.1,0.8-0.4
			c0.4-1.6,0-2.2-1.6-2.2c-0.2,0-0.4,0-0.6,0c-1.5,0-2.7-1.1-2.7-2.6c-0.1-1.6,0-3.2,0-4.8c0-0.6,0.2-0.9,0.8-1
			c0.3-0.1,0.6-0.2,0.9-0.3c2.7-1.3,5.2-2.7,5.4-6.1c0-0.3,0.2-0.5,0.5-0.5c0.3,0,0.6,0.1,0.7,0.4c0.1,0.2,0.1,0.5,0.1,0.7
			c0.1,1.3,0.7,2.3,1.6,3.2c1.2,1.2,2.7,2,4.4,2.6c0.8,0.2,1.1,0.6,1.1,1.5c-0.1,1.3-0.1,2.6,0,3.9c0.2,2-1.4,3.4-3.3,3.3
			c-1.8-0.1-1.8-0.5-1.8,1.8c0,0.7,0.3,0.9,0.9,0.9c1.5,0,2.9,0.1,4.4,0c1.1-0.1,1.8,0.2,2.1,1.3c0.1,0.2,0.2,0.6,0.5,0.5
			c0.3,0,0.3-0.4,0.4-0.6c0.7-2.4,0.9-4.8-0.5-7.1c-0.2-0.4-0.2-0.7,0-1c1.6-2.1,0.5-3.6-1.2-4.6c-0.8-0.5-1.1-1-1.1-1.9
			c-0.2-4.1-4.1-7.6-8.3-7.4c-4-0.3-8.3,3.3-8.4,7.8c0,0.7-0.3,1-0.9,1.3c-1.8,1-3,2.6-1.4,4.7c0.2,0.3,0.3,0.6,0,1
			c-1.5,2.1-1.4,4.4-0.8,6.7c0.1,0.4,0.1,1.1,0.7,1.1C218.3,360.3,218.2,359.6,218.4,359.2z M228.4,386.5c2.1,0.2,4.1,0.1,6.1-0.3
			c4.6-0.9,8.2-3.4,10.9-7.2c0.8-1.1,1.5-2.1,2.6-3c0.4-0.3,0.8-0.5,1.3-0.6c1.3-0.1,2.1,0.8,2.2,2.4c0.1,1.9-0.3,3.7-0.7,5.5
			c-0.1,0.4-0.4,0.8,0,1c0.5,0.2,1.1,0.3,1.6-0.2c0.2-0.1,0.3-0.3,0.4-0.5c0.7-1,1.4-2,1.9-3.1c1.3-2.9,2.2-5.8,1.7-9
			c-0.4-2.8-1.9-4.3-4.6-4.8c-1.1-0.2-2.2-0.1-3.3,0c-6.3,0.7-12.1,2.5-16.4,7.5c-0.4,0.5-0.8,0.5-1.3,0.3c-2.4-0.8-4.9-1.6-7.4-2.4
			c-0.5-0.2-1-0.5-1.5,0.1c-1.9,2.7-2.5,5.6-1.5,8.7C221.5,384.6,224.7,386.3,228.4,386.5z M211.2,380.9c-1.7,0.7-3.2,1.7-4.6,2.9
			c-3.4,3.1-5.8,6.8-5.7,11.6c0,1.7,0.7,3.2,2.7,3.7c0.8,0.4,1.7,0.5,2.6,0.6c4.7,0.6,9.5,0.3,14.2,0.1c5.2-0.2,10.4-0.6,15.6-0.6
			c6,0,12.1,0.4,18.1,0.1c2.6-0.1,5.2-0.4,7.6-1.3c2.5-0.9,3.8-2.7,3.5-4.9c-0.1-0.9-0.3-1.8-0.6-2.6c-1-3.3-2.9-6.1-5.1-8.6
			c-0.8-0.9-1.6-1.9-2.6-2.7c-0.6,1.7-1.3,3.2-2.3,4.6c-0.5,0.7-0.3,0.9,0.5,1.1c2.4,0.5,4.2,1.9,5.4,4.2c1.2,2.2,0.8,4.6,0.8,6.9
			c0,0.3-0.2,0.3-0.4,0.4c-3.6,0.2-6.9-0.3-9-3.7c-0.3-0.6-0.6-0.5-0.9,0c-0.6,0.9-1.4,1.7-2.3,2.3c-2,1.4-4.4,1.4-6.7,1.4
			c-0.5,0-0.4-0.4-0.4-0.6c0-1.2,0-2.3,0-3.5c0.1-1.5,0.5-2.9,1.4-4.2c1.2-1.7,2.8-2.8,4.9-3.2c0.4-0.1,0.9,0,1.1-0.6
			c0.5-1.7,0.9-3.5,1-5.3c0-0.5-0.2-0.6-0.6-0.6c-1-0.1-1.7,0.1-2.3,1c-1,1.5-2.2,2.8-3.5,4c-5,4.4-10.8,5.5-17.2,4.4
			c-4.3-0.8-7.1-3.3-7.8-7.8c-0.1-0.8-0.5-0.9-1.1-0.8C215.4,379.4,213.2,379.9,211.2,380.9z M234.7,351c0-0.5-0.1-1.1,0-1.6
			c0.1-0.8-0.2-1.1-0.9-1.4c-1.9-0.8-3.7-1.9-4.9-3.6c-0.3-0.4-0.7-0.5-1,0c-1.4,1.8-3.2,2.9-5.2,3.7c-0.5,0.2-0.7,0.4-0.7,1
			c0,1.2,0,2.4,0,3.6c0,1.1,0.5,1.5,1.5,1.5c0.8,0,1.6,0,2.4,0c0.8,0,1.2,0.3,1.1,1.1c-0.1,1-0.1,2.1,0,3.1c0,0.9-0.3,1.2-1.1,1.2
			c-0.3,0-0.5,0-0.8,0c-2.3,0-2.3,0-2.1,2.3c0,0.5,0.2,0.7,0.7,0.5c1.4-0.4,2.9-0.4,4.2,0.4c0.4,0.2,0.7,0,1-0.1
			c0.9-0.5,1.9-0.6,2.9-0.5c2.1,0.3,2.1,0.3,1.9-1.8c0,0,0-0.1,0-0.1c0-0.5-0.2-0.7-0.8-0.7c-0.8,0-1.6,0-2.3,0c-0.7,0-1-0.3-1-1.1
			c0-1.1,0-2.2,0-3.3c0-0.8,0.3-1.1,1-1.1c0.9,0,1.8,0,2.7,0c0.9,0,1.3-0.5,1.3-1.4C234.7,352.3,234.7,351.7,234.7,351z
			 M221.6,361.7c0-0.5,0-0.9,0-1.3c0-0.2,0-0.4-0.2-0.5c-0.6-0.4-1.7,0-2,0.7c-1.8,3.9-3.6,7.8-5.4,11.8c-0.4,1-0.2,1.7,0.6,2.1
			c0.9,0.4,1.9,0.1,2.3-0.8c1.4-3.1,2.8-6.2,4.3-9.3C221.5,363.3,221.8,362.5,221.6,361.7z M233.8,369.8c0-0.4,0-0.7,0-0.9
			c0-0.5-0.2-0.7-0.7-0.5c-1.6,0.7-3,0.5-4.3-0.7c-0.3-0.2-0.4-0.3-0.8,0c-1.3,1.2-2.7,1.5-4.4,0.7c-0.2-0.1-0.4-0.2-0.6,0
			c-0.5,0.6,0,2.3,0.8,2.5c1.7,0.6,3.4,1,5,1.7c1.7,0.8,3,0.6,4.2-1C233.5,371,234,370.5,233.8,369.8z M235.1,361.6
			c-0.1,0.8,0.1,1.6,0.6,2.5c0.5,0.9,0.9,1.8,1.3,2.6c0.8,1.7,0.8,1.7,2.5,1c0.2-0.1,0.4-0.2,0.6-0.2c0.5-0.2,0.6-0.4,0.3-0.9
			c-1-2-2.1-4-3-6.1c-0.4-1-1.2-0.8-1.8-0.7c-0.8,0-0.5,0.8-0.5,1.2C235.1,361.1,235.1,361.3,235.1,361.6z M225.2,363.8
			c-0.8,0-1.7,0-2.1,0.8c-0.3,0.8,0,1.6,0.6,2.2c0.4,0.4,0.9,0.6,1.4,0.7c1.2,0.1,2.5-1,2.5-2.2c0-0.9-0.7-1.4-2.1-1.5
			C225.5,363.8,225.4,363.8,225.2,363.8z M231.5,363.8c-0.2,0-0.5,0-0.7,0c-0.6,0.1-1.4,0.1-1.6,1c-0.2,0.7,0.2,1.8,0.8,2.2
			c0.8,0.6,1.8,0.6,2.6,0.1c0.7-0.4,1.2-1.5,1.1-2.3c-0.2-1-1-0.9-1.7-1.1C231.8,363.7,231.6,363.8,231.5,363.8z M235.2,368.3
			C235.2,368.3,235.2,368.3,235.2,368.3c0,0.1,0,0.3,0,0.4c0,0.3-0.1,0.7,0.3,0.8c0.2,0,0.5-0.1,0.7-0.3c0.3-0.2,0.2-0.5,0.1-0.8
			c-0.2-0.3-0.3-0.6-0.4-0.9c-0.1-0.2-0.2-0.3-0.4-0.3c-0.2,0-0.2,0.2-0.3,0.4C235.2,367.9,235.2,368.1,235.2,368.3z"/>
	</g>
	<path class="st17" d="M223.3,339.7c-0.2-0.1-0.3-0.2-0.5-0.3"/>
</g>
<text transform="matrix(1 0 0 1 131.2744 278.8456)"><tspan x="0" y="0" class="st1 st2 st18">House of Cybersecurity:</tspan><tspan x="0" y="9.5" class="st1 st2 st18">The gateway to cyber resilience</tspan></text>
<g>
	<polygon class="st19" points="268.7,258.2 268.7,278 236.5,278 236.5,258.2 252.6,244.3 	"/>
	<polygon class="st20" points="275.3,258.9 272.4,262.2 252.6,245.1 232.8,262.2 229.9,258.9 252.6,239.3 252.6,239.3 252.6,239.3 	
		"/>
	<g>
		<path class="st12" d="M240.4,274.5l0-16.5h3.1l0,13.6h5.4v2.9H240.4z"/>
		<path class="st12" d="M254.2,267.8c0,4,3,7,7.4,7c1.6,0,3.2-0.5,4.4-1.3l-0.9-2.7c-1,0.6-2.3,1-3.4,1c-2.5,0-4.1-1.6-4.1-4.1
			c0-2.5,1.6-4.1,4.1-4.1c1.1,0,2.2,0.4,3.2,0.9l1-2.7c-1.2-0.7-2.7-1.2-4.2-1.2C257.2,260.8,254.2,263.7,254.2,267.8z"/>
		<g>
			<path class="st12" d="M257.2,260.4v-2.4h-3.1v4.1h-5.2v-4.1h-3.1v11.3h3.1v-4.1h4.3C253.8,263.1,255.2,261.4,257.2,260.4z"/>
		</g>
	</g>
</g>
</svg>
